<svg width="200" height="120" viewBox="0 0 200 120" fill="none" xmlns="http://www.w3.org/2000/svg">
  <!-- Left Wing -->
  <path d="M 30 50 Q 50 45 70 48 L 75 52 Q 55 50 35 54 Z" fill="#0F2A44" opacity="0.8"/>
  
  <!-- Right Wing -->
  <path d="M 130 48 Q 150 45 170 50 L 165 54 Q 145 50 125 52 Z" fill="#0F2A44" opacity="0.8"/>
  
  <!-- Wing Swoosh (Light Blue) -->
  <path d="M 40 42 Q 100 35 160 42 Q 100 38 40 42 Z" fill="#38BDF8" opacity="0.6"/>
  
  <!-- Letter A - Main Body -->
  <path d="M 85 30 L 100 70 L 92 70 L 90 62 L 80 62 L 78 70 L 70 70 L 85 30 Z M 82 56 L 88 56 L 85 42 Z" fill="#0F2A44"/>
  
  <!-- Letter A - Crossbar Enhancement -->
  <rect x="80" y="54" width="10" height="3" fill="#0F2A44"/>
  
  <!-- AutoFlightLog Text -->
  <text x="100" y="100" font-family="system-ui, -apple-system, sans-serif" font-size="18" font-weight="600" fill="#0F2A44" text-anchor="middle">AutoFlightLog</text>
</svg>

